<svg xmlns="http://www.w3.org/2000/svg" width="15" height="17" viewBox="0 0 15 17">
    <g fill="#FFF" fill-rule="nonzero">
        <path d="M11.953 8.19l-5.92-6.45a.542.542 0 0 1-.151-.378c0-.142.05-.268.15-.377l.753-.82c.1-.11.216-.165.347-.165a.46.46 0 0 1 .347.164l7.02 7.648c.1.11.151.235.151.378 0 .142-.05.268-.15.377l-7.021 7.648a.457.457 0 0 1-.347.164.458.458 0 0 1-.346-.164l-.754-.82a.542.542 0 0 1-.15-.378c0-.142.05-.268.15-.377l5.921-6.45z"/>
        <path d="M6.071 8.19L.151 1.74A.542.542 0 0 1 0 1.362c0-.142.05-.268.15-.377l.753-.82A.46.46 0 0 1 1.25 0a.46.46 0 0 1 .347.164l7.02 7.648c.1.11.151.235.151.378 0 .142-.05.268-.15.377l-7.021 7.648a.458.458 0 0 1-.347.164.458.458 0 0 1-.346-.164l-.754-.82a.542.542 0 0 1-.15-.378c0-.142.05-.268.15-.377l5.921-6.45z"/>
    </g>
</svg>
