<svg xmlns="http://www.w3.org/2000/svg" width="67" height="68" viewBox="0 0 67 68">
    <path fill="#FF715B" fill-rule="nonzero" d="M65.984 26.34l-3.84 3.79L51.44 19.57l3.843-3.793c1.21-1.194 3.03-1.342 4.056-.33l6.979 6.89c1.025 1.012.876 2.808-.335 4.003zm-16.327-5.012L60.36 31.891 34.84 57.08c-.117.115-.442.436-.898.55a1.233 1.233 0 0 1-.16.064l-13.32 4.19c-.372.116-.747.04-.99-.2-.243-.24-.319-.61-.202-.977l4.244-13.145a1.43 1.43 0 0 1 .064-.157c.117-.451.441-.771.56-.887l4.796-4.734H12.735a1.176 1.176 0 0 1-1.183-1.167c0-.646.53-1.168 1.183-1.168H31.3l18.358-18.121zm-18.11 34.94l-6.588-6.501-1.767 5.475L26 58.014l5.548-1.746zm17.7-30.742a.978.978 0 0 0-1.372 0L27.98 45.162a.95.95 0 0 0 0 1.355.98.98 0 0 0 1.371 0L49.246 26.88a.95.95 0 0 0 0-1.355zM48.043 62.91c0 .702-.578 1.273-1.29 1.273H23.28l-2.12.667a4.336 4.336 0 0 1-1.302.202c-.933 0-1.8-.316-2.51-.869H5.16c-.711 0-1.29-.57-1.29-1.273V9.442c0-.702.578-1.273 1.29-1.273h4.836v2.015c0 .703.577 1.273 1.29 1.273.713 0 1.29-.57 1.29-1.273V8.17h7.416v2.015c0 .703.577 1.273 1.29 1.273.713 0 1.29-.57 1.29-1.273V8.17h6.449v2.015c0 .703.577 1.273 1.29 1.273.713 0 1.29-.57 1.29-1.273V8.17h7.094v2.015a1.28 1.28 0 0 0 1.29 1.273c.712 0 1.29-.57 1.29-1.273V8.17h5.481c.71 0 1.29.57 1.29 1.273v8.817l1.352-1.334 2.517-2.485V9.442c0-2.808-2.314-5.092-5.159-5.092h-5.481V1.274C41.276.57 40.698 0 39.986 0c-.712 0-1.29.57-1.29 1.274V4.35H31.6V1.274C31.6.57 31.023 0 30.31 0c-.713 0-1.29.57-1.29 1.274V4.35h-6.448V1.274C22.572.57 21.994 0 21.282 0c-.713 0-1.29.57-1.29 1.274V4.35h-7.416V1.274C12.576.57 11.998 0 11.286 0c-.713 0-1.29.57-1.29 1.274V4.35H5.159C2.315 4.35 0 6.634 0 9.442v53.466C0 65.716 2.315 68 5.16 68h41.594c2.845 0 5.16-2.284 5.16-5.092V44.372l-3.87 3.82v14.717zM37.969 19.602H12.735c-.653 0-1.183.522-1.183 1.167 0 .646.53 1.168 1.183 1.168H37.97c.653 0 1.183-.522 1.183-1.168 0-.645-.53-1.167-1.183-1.167zm0 9.413H12.735c-.653 0-1.183.522-1.183 1.167 0 .646.53 1.168 1.183 1.168H37.97c.653 0 1.183-.523 1.183-1.168 0-.645-.53-1.167-1.183-1.167z"/>
</svg>
