<svg xmlns="http://www.w3.org/2000/svg" width="208" height="50" viewBox="0 0 208 50">
    <g fill="none" fill-rule="nonzero">
        <g fill="#FF715B">
            <path d="M25.32.015c-7.76.07-8.785 1.105-10.155 1.875.24-.14 1.46-.61 2.685-.595 15.95.09 25.58 9.335 24.635 23.64-.32 4.84-1.86 12.165-10.665 16.92-.18.11-.875.535-1.935.61 1.09.965 3.095 2.25 7.79 3.39.79-.415.81-.345 2.345-1.525C45.955 39.76 49 31.99 49 23.695 49 9.84 39.17-.11 25.32.015z"/>
            <path d="M27.005 38.855c3.775 0 6.915-2.15 8.56-5.285.755-1.21 1.39-2.51 1.865-3.88a19.16 19.16 0 0 0 1.06-6.32c0-10.63-8.615-19.245-19.245-19.245-9.3 0-17.06 6.595-18.855 15.365A19.452 19.452 0 0 0 0 23.37c0 2.275.07 4.57.785 6.6 0 0 .005-.01.005-.02.01.045.015.09.025.13 1.04-1.935 7.085-11.785 17.24-12.315 0 0 1.59-.305 1.225 2.29l-5.015.86-1.395 2.965s4.26-2.73 6.39-3.675c0 .01-.005.02-.005.035a.636.636 0 0 1 .16-.1c.235-.1.44-.175.6-.215l-.175.03c.31-.12.765-.28 1.455-.495 2.51-.785 6.945-1.805 7.145-.795.2 1.005-3.505 7.435-3.505 7.435l.36-4.315s-5.225 2.56-6.9 5.05c-.92 1.36-1.185 2.7-.945 4.05 0 .015 0 .03.005.04.86 4.51 4.79 7.93 9.55 7.93zM24.03 41s2.345 5.775 5.17 7.79l.12.11c1.21-.2 2.395-.49 3.535-.855-2.81-1.455-7.3-4.135-8.825-7.045z"/>
            <path d="M5.51 39.7a24.879 24.879 0 0 0 2.61 2.82c-.025-1.045-.03-7.235 2.42-10.79-.005.005-2.955.905-5.03 7.97zm3.615-12.4s-4.13.85-7.405 5.715c.41 1.095.895 2.145 1.45 3.16.615-1.845 2.29-5.865 5.955-8.875zm10.62 21.345c1.25.28 2.535.46 3.85.545-1.085-1.265-3.905-5.04-4.605-10.805.005-.005-.905 6.67.755 10.26zM13.69 35.36s-2.765 3.795-2 9.935a25.47 25.47 0 0 0 3.38 1.81c-.515-1.31-1.995-5.76-1.38-11.745z"/>
        </g>
        <path fill="#FFF" d="M68.722 33.42l.14-1.47h-.07l-.532 1.344-2.548 4.424h-.35L62.66 33.28l-.504-1.33h-.07l.196 1.456V40H61.19v-9.8h.868l3.066 5.012.462 1.092h.028l.434-1.12 2.926-4.984h.91V40h-1.162v-6.58zm6.436 1.68c0-1.633.345-2.886 1.036-3.759.69-.873 1.675-1.309 2.954-1.309.69 0 1.288.121 1.792.364a3.36 3.36 0 0 1 1.253 1.029c.331.443.576.975.735 1.596a8.4 8.4 0 0 1 .238 2.079c0 1.633-.348 2.886-1.043 3.759-.695.873-1.687 1.309-2.975 1.309-.681 0-1.272-.121-1.771-.364a3.375 3.375 0 0 1-1.246-1.029c-.331-.443-.576-.975-.735-1.596a8.4 8.4 0 0 1-.238-2.079zm1.232 0c0 .541.054 1.055.161 1.54.107.485.273.912.497 1.281.224.369.511.663.861.882.35.22.763.329 1.239.329.868 0 1.55-.329 2.044-.987.495-.658.742-1.673.742-3.045 0-.532-.054-1.043-.161-1.533a4.08 4.08 0 0 0-.504-1.288 2.705 2.705 0 0 0-.868-.882c-.35-.22-.768-.329-1.253-.329-.859 0-1.533.329-2.023.987-.49.658-.735 1.673-.735 3.045zm14.234 1.834l.336 1.484h.014l.364-1.512 2.366-6.706h1.162l-3.71 9.954h-.518l-3.78-9.954h1.274l2.492 6.734zm8.97-6.734h1.162V40h-1.162v-9.8zm8.872 3.388l-.756-1.414h-.056l.14 1.414V40h-1.092v-9.954h.616l4.69 6.538.728 1.344h.07l-.154-1.344V30.2h1.092v9.954h-.616l-4.662-6.566zm14.262 1.526h3.29v4.312c-.15.112-.329.215-.539.308-.21.093-.434.173-.672.238a5.932 5.932 0 0 1-1.491.196c-.625 0-1.2-.1-1.722-.301a3.558 3.558 0 0 1-1.358-.924c-.383-.415-.681-.943-.896-1.582-.215-.64-.322-1.393-.322-2.261 0-.905.13-1.68.392-2.324.261-.644.602-1.169 1.022-1.575.42-.406.891-.702 1.414-.889a4.635 4.635 0 0 1 1.568-.28c.56 0 1.022.03 1.386.091.364.06.672.142.924.245l-.294 1.022c-.448-.215-1.087-.322-1.918-.322a3.53 3.53 0 0 0-1.169.203 2.672 2.672 0 0 0-1.043.679c-.308.317-.56.733-.756 1.246-.196.513-.294 1.148-.294 1.904 0 .69.08 1.288.238 1.792.159.504.38.922.665 1.253.285.331.628.579 1.029.742.401.163.84.245 1.316.245.597 0 1.106-.117 1.526-.35v-2.73l-2.296-.28v-.658zm21.874 4.48c-.28.215-.635.364-1.064.448a7.14 7.14 0 0 1-1.372.126c-.588 0-1.139-.1-1.652-.301a3.617 3.617 0 0 1-1.344-.917c-.383-.41-.686-.936-.91-1.575-.224-.64-.336-1.398-.336-2.275 0-.915.124-1.692.371-2.331.247-.64.574-1.162.98-1.568.385-.392.85-.696 1.365-.889a4.402 4.402 0 0 1 1.54-.28c.56 0 1.017.03 1.372.091.355.06.658.142.91.245l-.28 1.022c-.448-.215-1.087-.322-1.918-.322-.383 0-.76.07-1.134.21a2.61 2.61 0 0 0-1.001.686c-.294.317-.53.733-.707 1.246-.177.513-.266 1.143-.266 1.89 0 .672.084 1.26.252 1.764.168.504.399.924.693 1.26.294.336.64.588 1.036.756.397.168.828.252 1.295.252.42 0 .786-.042 1.099-.126.313-.084.576-.191.791-.322l.28.91zm4.252-4.494c0-1.633.345-2.886 1.036-3.759.69-.873 1.675-1.309 2.954-1.309.69 0 1.288.121 1.792.364a3.36 3.36 0 0 1 1.253 1.029c.331.443.576.975.735 1.596a8.4 8.4 0 0 1 .238 2.079c0 1.633-.348 2.886-1.043 3.759-.695.873-1.687 1.309-2.975 1.309-.681 0-1.272-.121-1.771-.364a3.375 3.375 0 0 1-1.246-1.029c-.331-.443-.576-.975-.735-1.596a8.4 8.4 0 0 1-.238-2.079zm1.232 0c0 .541.054 1.055.161 1.54.107.485.273.912.497 1.281.224.369.511.663.861.882.35.22.763.329 1.239.329.868 0 1.55-.329 2.044-.987.495-.658.742-1.673.742-3.045 0-.532-.054-1.043-.161-1.533a4.08 4.08 0 0 0-.504-1.288 2.705 2.705 0 0 0-.868-.882c-.35-.22-.768-.329-1.253-.329-.859 0-1.533.329-2.023.987-.49.658-.735 1.673-.735 3.045zm19.582-1.68l.14-1.47h-.07l-.532 1.344-2.548 4.424h-.35l-2.702-4.438-.504-1.33h-.07l.196 1.456V40h-1.092v-9.8h.868l3.066 5.012.462 1.092h.028l.434-1.12 2.926-4.984h.91V40h-1.162v-6.58zm11.504 3.864h-3.612L176.58 40h-1.148l3.71-9.954h.532L183.398 40h-1.218l-1.008-2.716zm-3.234-1.008h2.884l-1.092-2.982-.35-1.484h-.014l-.35 1.512-1.078 2.954zm11.826-2.688l-.756-1.414h-.056l.14 1.414V40H188v-9.954h.616l4.69 6.538.728 1.344h.07l-.154-1.344V30.2h1.092v9.954h-.616l-4.662-6.566zm13.114 2.52l-3.234-5.908h1.358l2.296 4.284.238.854h.014l.252-.882L206 30.2h1.246l-3.206 5.894V40h-1.162v-3.892zM61.2 7h8.3v2.44h-5.56v3.26H69v2.44h-5.06v3.42h5.66V21h-8.4V7zm17.34 10.9h-4.3L73.18 21h-2.74l5.04-14.1h2.02L82.54 21h-2.88l-1.12-3.1zm-3.6-2.2h3l-1.04-3.12-.42-2.2h-.1l-.42 2.22-1.02 3.1zm13.12-2h5.22v6.24c-.56.467-1.23.807-2.01 1.02-.78.213-1.55.32-2.31.32-.893 0-1.723-.14-2.49-.42a5.111 5.111 0 0 1-1.99-1.31c-.56-.593-1-1.35-1.32-2.27-.32-.92-.48-2.013-.48-3.28 0-1.32.19-2.443.57-3.37.38-.927.88-1.68 1.5-2.26.62-.58 1.317-1 2.09-1.26a7.36 7.36 0 0 1 2.36-.39c.8 0 1.503.06 2.11.18s1.09.247 1.45.38l-.56 2.3a5.692 5.692 0 0 0-1.12-.31c-.413-.073-.94-.11-1.58-.11-.573 0-1.1.087-1.58.26-.48.173-.897.457-1.25.85-.353.393-.627.897-.82 1.51-.193.613-.29 1.36-.29 2.24 0 .84.093 1.563.28 2.17.187.607.447 1.107.78 1.5a3.08 3.08 0 0 0 1.17.87c.447.187.923.28 1.43.28.347 0 .687-.043 1.02-.13.333-.087.613-.217.84-.39v-2.64l-3.02-.32V13.7zm16.1 7.3H95.3V7h2.74v11.56h6.12V21zm1.42-14h8.3v2.44h-5.56v3.26h5.06v2.44h-5.06v3.42h5.66V21h-8.4V7zm16.14 10.12c0-.507.083-.99.25-1.45.167-.46.4-.89.7-1.29.3-.4.657-.773 1.07-1.12.413-.347.86-.653 1.34-.92a7.542 7.542 0 0 1-.82-1.34 3.34 3.34 0 0 1-.32-1.44c0-.333.063-.67.19-1.01a2.56 2.56 0 0 1 .6-.92c.273-.273.63-.493 1.07-.66.44-.167.973-.25 1.6-.25.613 0 1.137.073 1.57.22.433.147.783.34 1.05.58.267.24.46.513.58.82.12.307.18.62.18.94 0 .547-.193 1.117-.58 1.71-.387.593-1.047 1.163-1.98 1.71.467.72.933 1.38 1.4 1.98.467.6.987 1.193 1.56 1.78a5.29 5.29 0 0 0 .83-1.25c.247-.5.463-1.01.65-1.53l1.88 1c-.08.24-.19.503-.33.79a15.78 15.78 0 0 1-.97 1.7c-.173.26-.333.483-.48.67.427.387.8.69 1.12.91.32.22.647.423.98.61l-1.38 1.92a6.904 6.904 0 0 1-1.15-.69 11.118 11.118 0 0 1-1.17-.99c-.48.44-1.08.83-1.8 1.17-.72.34-1.607.51-2.66.51a6.597 6.597 0 0 1-1.95-.28 4.681 4.681 0 0 1-1.58-.82c-.447-.36-.8-.797-1.06-1.31s-.39-1.097-.39-1.75zm7.88.9c-.68-.707-1.3-1.41-1.86-2.11a27.08 27.08 0 0 1-1.46-1.99c-.64.493-1.127.97-1.46 1.43-.333.46-.5.977-.5 1.55 0 .68.25 1.213.75 1.6s1.157.58 1.97.58c.533 0 1.033-.11 1.5-.33.467-.22.82-.463 1.06-.73zm-3.06-8.34c0 .56.24 1.16.72 1.8.52-.333.897-.647 1.13-.94.233-.293.35-.573.35-.84 0-.32-.09-.573-.27-.76-.18-.187-.47-.28-.87-.28-.36 0-.627.093-.8.28-.173.187-.26.433-.26.74zM142.42 7h8.3v2.44h-5.56v3.46h5.12v2.44h-5.12V21h-2.74V7zm17.06 10.9h-4.3l-1.06 3.1h-2.74l5.04-14.1h2.02l5.04 14.1h-2.88l-1.12-3.1zm-3.6-2.2h3l-1.04-3.12-.42-2.2h-.1l-.42 2.22-1.02 3.1zm17.66 5.3h-8.86V7h2.74v11.56h6.12V21zm9.04-.58c-.427.307-.97.527-1.63.66-.66.133-1.337.2-2.03.2-.84 0-1.637-.13-2.39-.39a5.112 5.112 0 0 1-1.99-1.26c-.573-.58-1.03-1.333-1.37-2.26-.34-.927-.51-2.05-.51-3.37 0-1.373.19-2.523.57-3.45.38-.927.873-1.673 1.48-2.24a5.462 5.462 0 0 1 2.03-1.22 7.104 7.104 0 0 1 2.24-.37c.8 0 1.477.053 2.03.16.553.107 1.01.233 1.37.38l-.54 2.32a3.966 3.966 0 0 0-1.09-.32c-.42-.067-.93-.1-1.53-.1-1.107 0-1.997.393-2.67 1.18-.673.787-1.01 2.007-1.01 3.66 0 .72.08 1.377.24 1.97.16.593.403 1.1.73 1.52.327.42.733.747 1.22.98.487.233 1.05.35 1.69.35.6 0 1.107-.06 1.52-.18.413-.12.773-.273 1.08-.46l.56 2.24zm.6-6.42c0-2.333.513-4.13 1.54-5.39 1.027-1.26 2.493-1.89 4.4-1.89 1 0 1.873.173 2.62.52.747.347 1.367.84 1.86 1.48.493.64.86 1.407 1.1 2.3.24.893.36 1.887.36 2.98 0 2.333-.517 4.13-1.55 5.39-1.033 1.26-2.497 1.89-4.39 1.89-1.013 0-1.893-.173-2.64-.52a4.852 4.852 0 0 1-1.85-1.48c-.487-.64-.85-1.407-1.09-2.3-.24-.893-.36-1.887-.36-2.98zm2.88 0c0 .707.06 1.357.18 1.95s.303 1.103.55 1.53c.247.427.563.76.95 1s.847.36 1.38.36c.973 0 1.727-.38 2.26-1.14.533-.76.8-1.993.8-3.7 0-.68-.057-1.313-.17-1.9a5.3 5.3 0 0 0-.53-1.54 2.76 2.76 0 0 0-.94-1.03c-.387-.247-.86-.37-1.42-.37-.973 0-1.727.39-2.26 1.17-.533.78-.8 2.003-.8 3.67zm14.44-.3l-1.1-2.2h-.1l.32 2.2V21h-2.6V6.9h2l5.3 7.46 1.06 2.14h.1l-.32-2.14V7h2.6v14.1h-2l-5.26-7.4z"/>
    </g>
</svg>
