<svg xmlns="http://www.w3.org/2000/svg" width="69" height="68" viewBox="0 0 69 68">
    <g fill="#FF715B" fill-rule="nonzero">
        <path d="M15.067 10.369A3.61 3.61 0 0 0 14 12.986c0 .995.3 1.825.905 2.497.613.673 1.656 1.18 3.095 1.517V9c-1.244.178-2.219.633-2.933 1.369zM19 20v9c1.153-.146 2.11-.65 2.862-1.522.747-.867 1.138-1.943 1.138-3.223 0-1.097-.275-1.97-.807-2.637-.53-.657-1.59-1.203-3.193-1.618z"/>
        <path d="M65.83 39.593l.116.18-2.632-9.059a4.463 4.463 0 0 0-2.15-2.685 4.414 4.414 0 0 0-3.396-.373l-.545.161c-.897.263-1.519.964-2.081 1.69-.803-2.22-3.127-3.515-5.404-2.847l-1.267.376c-.83.247-1.463.802-2.01 1.417-.007-.021-.078-.284-.078-.284-.693-2.383-3.189-3.75-5.552-3.049l-1.267.373c-.784.23-1.285.89-1.818 1.483-.553-1.891-1.098-3.78-1.56-5.364V7.202C36.186 3.237 32.967 0 29.044 0H7.151C3.22 0 0 3.237 0 7.202v25.204c0 3.965 3.222 7.205 7.15 7.205h21.894c.56 0 1.098-.08 1.622-.206l.72 2.485c-.675 2.092-1.916 8.625-2.324 10.78.006.71.31 3.478 2.413 4.958l12.753 8.246c.307.191.465.298.465.298 3.023 1.73 5.9 2.238 8.409 1.498l7.523-2.22c5.09-1.497 8.445-7.76 8.374-12.655-.05-2.852-2.058-10.97-3.168-13.202zm-19.6 24.07c-.258-.146-.507-.304-.507-.304.05.039-12.587-8.124-12.587-8.124-.85-.6-1.16-1.957-1.202-2.431.85-4.281 1.945-9.571 2.277-10.323l.213-.486-.136-.546L27.99 19.8c-.237-.823.249-1.721 1.066-1.966l1.267-.367a1.566 1.566 0 0 1 1.945 1.071l6.355 21.869 3.268-1.16-.355-1.343-2.224-7.644c-.115-.4-.065-.823.13-1.196.208-.373.54-.645.936-.764l1.267-.373a1.566 1.566 0 0 1 1.949 1.074l2.712 9.314 3.639-.653-.468-1.554-1.258-4.293a1.591 1.591 0 0 1 1.066-1.964l1.27-.375a1.57 1.57 0 0 1 1.942 1.077l1.884 6.453 3.74-.427-.469-1.67-.675-2.322a1.613 1.613 0 0 1 .137-1.205c.192-.37.53-.639.923-.752l.557-.164c.397-.12.811-.069 1.178.131.37.203.643.537.758.94l2.65 9.108.03.07c.332.9 2.825 8.54 2.893 12.118.053 3.741-2.52 8.69-6.28 9.803l-7.53 2.22c-2.188.647-4.51-.29-6.064-1.194zM23.944 29.315c-1.267 1.346-2.901 2.062-4.924 2.16v2.948h-1.705V31.514c-1.428-.179-2.603-.501-3.512-.976-.897-.465-1.67-1.223-2.321-2.267-.664-1.047-1.04-2.321-1.137-3.83l2.893-.562c.233 1.564.615 2.706 1.175 3.437.805 1.035 1.78 1.611 2.899 1.725v-9.106c-1.173-.31-2.378-.808-3.618-1.51a5.292 5.292 0 0 1-2.12-2.141c-.5-.913-.747-1.946-.747-3.106 0-2.062.723-3.73 2.17-5.01.966-.862 2.408-1.384 4.312-1.58V5.19h1.708v1.396c1.667.161 3 .66 3.97 1.495 1.262 1.056 2.008 2.515 2.266 4.356l-2.961.45c-.178-1.142-.527-2.013-1.063-2.625-.536-.609-1.27-1.008-2.206-1.202v8.32c1.454.373 2.404.666 2.884.869.891.396 1.62.883 2.191 1.452.566.567 1 1.248 1.297 2.032.314.785.459 1.635.459 2.551 0 2.011-.63 3.685-1.91 5.03z"/>
    </g>
</svg>
