<?xml version="1.0" encoding="UTF-8"?>
<svg width="95px" height="62px" viewBox="0 0 95 62" version="1.1" xmlns="http://www.w3.org/2000/svg" xmlns:xlink="http://www.w3.org/1999/xlink">
    <!-- Generator: Sketch 49 (51002) - http://www.bohemiancoding.com/sketch -->
    <title>fast-delivery</title>
    <desc>Created with Sketch.</desc>
    <defs></defs>
    <g id="Layout" stroke="none" stroke-width="1" fill="none" fill-rule="evenodd">
        <g id="Imperius-Van-Lines-1360-(v0.2)" transform="translate(-881.000000, -975.000000)" fill="#FF715B" fill-rule="nonzero">
            <g id="fast-delivery" transform="translate(881.000000, 975.000000)">
                <path d="M94.9985788,31.9351421 C94.9985788,31.9174068 94.9976794,31.8996716 94.9974546,31.8819363 C94.9713729,30.6932249 94.0153444,29.7460722 92.8104157,29.7460722 L92.236169,29.7460722 L83.3677228,12.6263827 C82.9935856,11.9035025 82.2473347,11.4533861 81.4235134,11.4531616 L66.2826477,11.4500186 L66.860267,6.87836248 C67.0250762,5.05140618 66.4593736,3.32637151 65.267036,2.02069717 C64.0769469,0.717716793 62.4153639,0 60.5880723,0 L13.5960776,0 C12.4145325,0 11.4108375,0.912804655 11.2981916,2.08961774 L10.8271474,5.8562278 L37.6008926,5.8562278 C39.3393716,5.8562278 40.7118076,7.26337477 40.6663895,8.99918529 C40.6207466,10.7349958 39.1745623,12.1421428 37.4360834,12.1421428 L28.5055808,12.1421428 C28.5071547,12.1466327 28.5087286,12.1511227 28.5103025,12.1553881 L2.28517197,12.1553881 C1.05573548,12.1553881 0.032928856,13.1503587 0.000776438604,14.3779081 C-0.0313759788,15.6054574 0.939042438,16.600428 2.16847893,16.600428 L36.8876935,16.600428 C38.4993616,16.8482726 39.7033909,18.2399293 39.659097,19.924779 C39.6105311,21.775083 38.0764336,23.2753962 36.226433,23.2908865 L12.2901948,23.2908865 C11.048392,23.2908865 10.0154675,24.2959594 9.98286542,25.5358561 C9.95026332,26.7757529 10.9305748,27.7808258 12.1723776,27.7808258 L35.8266638,27.7808258 C37.4619402,28.0082412 38.6900277,29.4111227 38.6455089,31.1123607 C38.5967182,32.9720936 37.0471066,34.4798152 35.1845148,34.4798152 L8.04764964,34.4798152 L8.04764964,34.4822847 L5.7675261,34.4822847 C4.5257233,34.4822847 3.49279878,35.4873576 3.46019668,36.7272543 C3.42759458,37.967151 4.4076812,38.9722239 5.64970885,38.9722239 L7.61752674,38.9722239 L6.8478923,47.0132562 C6.68285821,48.839988 7.24856088,50.5650226 8.44112328,51.870697 C9.63098756,53.1739019 11.2927954,53.8913942 13.120087,53.8913942 L14.8176447,53.8913942 C15.6266265,58.5101947 19.6288155,62 24.5243021,62 C29.4197887,62 33.6049992,58.5101947 34.6556862,53.8916187 L55.8400821,53.8916187 C57.5529291,53.8916187 59.1744902,53.237659 60.446197,52.167033 C61.6090802,53.2814359 63.1505975,53.8916187 64.8337653,53.8916187 L65.1822706,53.8916187 C65.9910275,58.5101947 69.9932165,62 74.888928,62 C79.7844146,62 83.9696251,58.5101947 85.0203121,53.8916187 L86.418605,53.8916187 C90.0612715,53.8916187 93.2918025,50.9347691 93.620072,47.3003878 L94.9902596,32.1454958 C94.9920584,32.1250665 94.991159,32.1048618 94.992508,32.0842081 C94.9947565,32.053003 94.9990285,32.0224714 94.9999278,31.9910418 C95.0003775,31.9721841 94.9985788,31.9539998 94.9985788,31.9351421 Z M24.6421193,57.5100607 C21.5426713,57.5100607 19.0869461,54.9925518 19.1681141,51.8978611 C19.2492821,48.802946 21.8369896,46.2852125 24.9364376,46.2852125 C28.0358857,46.2852125 30.4913861,48.802946 30.4102181,51.8978611 C30.3290501,54.9925518 27.7415674,57.5100607 24.6421193,57.5100607 Z M75.0067452,57.5100607 C71.9072972,57.5100607 69.4517968,54.9925518 69.53274,51.8978611 C69.613908,48.802946 72.2016155,46.2852125 75.3010635,46.2852125 C78.4005116,46.2852125 80.8562368,48.802946 80.774844,51.8978611 C80.693676,54.9925518 78.1061933,57.5100607 75.0067452,57.5100607 Z M89.1403184,47.0132562 C89.0234005,48.3079302 87.831063,49.4016794 86.5366471,49.4016794 L85.0241344,49.4016794 C84.0226878,45.0345399 80.1351682,41.7952733 75.4186559,41.7952733 C70.7021436,41.7952733 66.6448683,45.0345399 65.4145324,49.4016794 L64.9515826,49.4016794 C64.380034,49.4016794 63.8700922,49.1877338 63.5150665,48.798905 C63.1577925,48.4078313 62.9896106,47.875549 63.0415491,47.3001633 L65.8765829,15.9399579 L72.3877847,15.9413049 L71.3557595,27.3574245 C71.1905006,29.1841563 71.7559785,30.909191 72.948316,32.2148653 C74.1381803,33.5182947 75.8004378,34.236236 77.6279542,34.236236 L90.2951073,34.236236 L89.1403184,47.0132562 Z" id="Shape"></path>
            </g>
        </g>
    </g>
</svg>