<svg xmlns="http://www.w3.org/2000/svg" width="82" height="82" viewBox="0 0 82 82">
    <g fill="#FF715B" fill-rule="nonzero">
        <path d="M40.981 0C18.384 0 0 18.384 0 40.98c0 22.598 18.384 40.982 40.981 40.982s40.98-18.384 40.98-40.981S63.579 0 40.982 0zm0 75.243c-18.893 0-34.263-15.37-34.263-34.262 0-18.893 15.37-34.263 34.263-34.263s34.263 15.37 34.263 34.263-15.37 34.262-34.263 34.262z"/>
        <path d="M58.71 25.252L34.376 49.584 23.253 38.46a3.36 3.36 0 0 0-4.751 4.75l13.5 13.5a3.35 3.35 0 0 0 2.375.984c.86 0 1.72-.328 2.376-.984L63.46 30.003a3.36 3.36 0 0 0-4.75-4.75z"/>
    </g>
</svg>
