<svg xmlns="http://www.w3.org/2000/svg" width="23" height="22" viewBox="0 0 23 22">
    <path fill="#FFF" fill-rule="nonzero" d="M.887 2.748c0-1 .796-1.81 1.777-1.81H21.11c.981 0 1.778.81 1.778 1.81 0 .999-.797 1.81-1.778 1.81H2.664c-.981 0-1.777-.811-1.777-1.81zm20.222 6.88H2.664c-.981 0-1.777.811-1.777 1.81s.796 1.81 1.777 1.81H21.11c.981 0 1.778-.811 1.778-1.81s-.796-1.81-1.778-1.81zm0 8.691H2.664c-.981 0-1.777.81-1.777 1.81 0 .998.796 1.81 1.777 1.81H21.11c.981 0 1.778-.812 1.778-1.81 0-1-.796-1.81-1.778-1.81z"/>
</svg>
