<svg xmlns="http://www.w3.org/2000/svg" width="26" height="26" viewBox="0 0 26 26">
    <g fill="#FFF" fill-rule="nonzero" stroke="#FFF" stroke-width=".5">
        <path d="M18.44 25.613c.112.005.218.01.329.01 1.186 0 2.176-.429 2.953-1.272l.02-.02c.278-.333.59-.636.924-.954.227-.217.46-.44.676-.672 1.035-1.08 1.03-2.448-.01-3.488l-2.877-2.877c-.495-.515-1.085-.788-1.711-.788-.621 0-1.217.268-1.727.778l-1.701 1.7c-.152-.085-.308-.16-.46-.237a7.067 7.067 0 0 1-.524-.282c-1.56-.99-2.974-2.282-4.327-3.943-.681-.858-1.13-1.575-1.449-2.312.445-.404.859-.823 1.257-1.232.147-.146.293-.297.445-.449 1.08-1.08 1.08-2.418 0-3.493L8.829 4.653c-.167-.166-.328-.333-.49-.495-.318-.323-.646-.66-.974-.964-.495-.494-1.08-.752-1.701-.752-.616 0-1.212.258-1.727.752L2.145 4.981a3.736 3.736 0 0 0-1.11 2.378c-.091 1.15.12 2.373.666 3.847.843 2.276 2.11 4.392 3.988 6.653 2.287 2.726 5.033 4.882 8.173 6.401 1.196.57 2.797 1.237 4.579 1.353zM6.644 17.067c-1.787-2.151-2.983-4.15-3.776-6.29-.49-1.318-.671-2.343-.596-3.317a2.473 2.473 0 0 1 .753-1.605l1.782-1.782c.272-.263.57-.4.863-.4.288 0 .57.137.843.405.318.297.626.61.949.939.162.166.328.338.5.504l1.428 1.43c.586.585.586 1.16 0 1.746-.151.151-.303.303-.449.454-.444.45-.858.873-1.317 1.282l-.026.026c-.409.408-.348.802-.247 1.095l.015.04c.369.889.889 1.732 1.686 2.741 1.439 1.772 2.953 3.15 4.63 4.216.206.131.423.242.635.348.192.096.369.187.525.283l.056.03c.161.08.318.121.48.121.398 0 .65-.252.731-.338l1.793-1.792c.272-.273.565-.414.853-.414.353 0 .64.222.828.414l2.887 2.887c.707.707.384 1.343-.015 1.762-.202.217-.414.42-.636.636a13.13 13.13 0 0 0-1.005 1.04c-.545.586-1.191.858-2.034.858-.08 0-.167-.005-.247-.01-1.57-.1-3.024-.712-4.12-1.231-2.988-1.44-5.598-3.484-7.769-6.078zM14.533 5.506a.618.618 0 0 0-.207 1.217 6.783 6.783 0 0 1 3.66 1.898 6.766 6.766 0 0 1 1.898 3.66.617.617 0 0 0 .717.505.613.613 0 0 0 .505-.712 7.98 7.98 0 0 0-2.241-4.326 7.996 7.996 0 0 0-4.332-2.242zM24.988 12.584c.035 0 .07-.005.106-.01a.613.613 0 0 0 .505-.712 13.164 13.164 0 0 0-3.705-7.148 13.196 13.196 0 0 0-7.154-3.706.618.618 0 0 0-.207 1.217c2.459.419 4.7 1.58 6.482 3.362a11.967 11.967 0 0 1 3.362 6.482c.05.303.313.515.611.515z"/>
    </g>
</svg>
